<?xml version="1.0" encoding="utf-8" ?><svg xmlns="http://www.w3.org/2000/svg" xmlns:xlink="http://www.w3.org/1999/xlink" width="1024" height="1024" viewBox="0 0 1024 1024"><path fill="#FEF4DD" d="M0 0L1024 0L1024 523.502L1024 1024L0 1024L0 657.387L0 0Z"/><path fill="#65CCB2" d="M0 0L1024 0L1024 523.502C947.828 529.648 871.747 544.744 795.77 551.137C805.916 539.646 808.602 532.486 814.012 518.506C814.777 516.526 821.45 509.693 823.42 507.152C833.183 494.618 840.075 480.094 843.609 464.604C871.649 462.562 871.193 422.223 869.571 402.085C867.12 368.975 856.726 336.944 839.268 308.703C853.932 302.979 875.41 294.198 867.85 274.221C864.295 264.825 845.029 258.648 836.071 254.745C827.144 250.779 818.477 246.252 810.121 241.191C797.644 233.607 785.771 225.072 774.608 215.661C763.492 206.309 752.691 195.96 741.619 186.874C731.599 178.635 721.051 171.059 710.043 164.195C692.083 152.842 670.569 142.894 650.62 135.666C594.75 115.108 534.147 111.043 476.031 123.955C462.271 127.027 442.191 133.101 429.329 138.912C423.75 134.182 415.238 133.163 408.17 134.079C367.664 139.326 333.769 169.1 317.614 205.301C230.18 218.82 188.887 354.754 200.101 431.05C202.082 444.529 206.231 459.107 219.821 464.92C222.904 493.781 236.353 516.545 253.344 538.553C255.342 541.141 258.751 550.142 260.66 553.932C268.228 568.962 277.378 580.903 289.335 592.611C280.107 594.638 270.166 596.1 260.81 597.769C246.748 600.31 232.708 602.971 218.691 605.753C165.366 616.299 112.301 628.118 59.5408 641.199C46.1715 644.56 32.8312 648.036 19.5216 651.627C15.014 652.848 3.92107 655.638 0 657.387L0 0Z"/><path fill="#021A21" d="M386.708 185.962C406.1 169.687 426.735 158.697 450.549 150.217C548.88 115.207 664.814 140.47 741.361 210.841C754.187 222.632 768.53 234.787 782.603 244.931C797.498 255.563 813.443 264.641 830.188 272.023C837.592 275.28 845.419 277.852 852.67 281.302C839.708 290.965 822.355 294.311 806.6 295.095C837.76 330.147 855.473 384.354 851.005 431.026C848.442 457.792 838.134 443.97 826.386 433.588C826.748 437.472 826.938 441.371 826.956 445.272C826.95 471.157 813.268 491.393 795.634 509.085C794.564 514.68 791.623 528.715 786.539 531.773C783.551 533.57 782.042 533.038 777.972 536.303L777.387 536.779C778.153 542.119 776.533 554.103 775.997 559.725C772.582 595.485 764.839 631.346 742.618 660.48C740.482 663.28 730.024 676.304 727.433 678.104C722.233 683.534 716.155 688.794 710.451 693.718C726.51 702.568 738.623 709.645 751.711 722.88C775.298 746.732 784.091 778.504 772.687 810.593C784.77 819.054 829.647 848.906 831.859 862.915C832.439 866.589 831.652 870.538 829.321 873.49C826.978 876.456 823.386 878.022 819.664 878.253C813.177 878.655 807.639 875.115 803.077 870.868C801.456 869.343 799.851 867.802 798.262 866.244C776.469 889.551 749.955 903.263 719.823 912.534C717.485 913.254 706.283 916.394 705.149 917.407C706.132 923.445 707.337 929.169 707.354 935.296C707.406 954.623 683.6 963.504 669.323 952.162C661.629 946.05 661.464 935.234 660.186 926.212C623.753 930.89 587.127 933.922 550.421 935.3C534.248 935.945 518.245 935.573 502.54 936.133C502.641 943.097 502.598 949.522 498.149 955.376C490.616 965.286 475.349 967.429 465.769 959.274C457.789 952.482 457.921 942.057 456.982 932.523C366.952 927.978 252.488 918.609 174.834 870.371C168.384 875.362 154.665 887.095 147.153 889.488C138.122 892.365 130.779 887.063 128.237 877.773C132.368 859.055 159.271 849.654 173.237 834.937C159.453 818.891 150.434 803.134 149.668 781.57C146.077 680.398 283.478 651.956 357.089 646.02C353.051 637.364 347.875 628.895 343.032 620.631C338.583 627.492 335.305 634.762 329.104 624.424C321.411 611.599 314.424 599.56 310.716 584.846C288.315 566.97 276.588 548.126 269.729 520.447C266.9 521.699 263.758 523.156 261.412 519.798C258.277 515.31 256.034 509.98 253.461 505.13C241.605 482.783 234.325 461.632 237.197 435.802C235.864 437.95 234.466 440.058 233.005 442.122C220.684 459.548 217.705 428.369 217.208 421.289C212.281 351.193 246.344 228.225 331.107 221.953C339.765 186.086 379.774 154.449 416.174 151.117C402.01 164.857 398.049 169.468 386.708 185.962Z"/><path fill="#674335" d="M375.748 183.085C371.349 190.849 356.107 220.6 362.784 227.498C364.266 227.902 365.828 227.607 367.045 226.707C374.124 221.468 379.919 212.451 386.324 206.384C391.389 201.587 397.249 197.114 402.753 193.138C458.278 153.034 533.117 141.083 599.489 155.384C641.539 164.445 686.998 184.897 719.687 213.139C737.411 228.452 753.314 245.188 773.056 258.445C781.901 264.384 790.859 269.957 800.468 274.667C805.734 277.249 811.525 279.431 816.658 282.122C806.351 284.407 797.114 283.518 786.78 280.214C784.176 279.382 775.562 274.963 772.184 274.385C772.007 274.611 771.831 274.837 771.655 275.063C772.408 278.272 782.037 288.016 784.803 291.277C815.866 327.895 833.037 376.837 834.138 424.671C831.206 422.08 828.301 419.458 825.424 416.807C823.918 409.351 820.288 398.869 817.465 391.812C815 385.65 802.826 357.408 797.982 355.896C797.198 356.865 796.872 357.896 796.96 359.179C798.31 378.833 794.97 397.606 793.589 417.066C792.757 413.425 792.399 409.508 791.742 405.768C790.512 399.019 789.196 392.286 787.795 385.57C782.854 361.953 773.174 332.81 761.456 311.729C762.533 322.582 765.091 335.644 766.496 346.816C768.132 360.898 768.847 375.071 768.636 389.247C768.618 391.437 768.718 396.841 768.071 398.942C767.918 399.44 767.276 399.443 766.624 399.617C760.93 364.593 743.507 325.856 723.233 296.686C715.502 285.561 706.501 275.643 698.744 264.446C693.772 257.268 694.333 250.834 691.076 245.154C689.628 244.275 690.413 244.522 688.597 244.545C687.368 245.32 686.395 246.651 686.224 248.219C685.073 258.751 687.283 267.828 686.041 278.646C681.937 314.373 667.541 353.913 637.947 376.251C637.785 376.352 637.624 376.454 637.462 376.555C638.972 371.149 641.852 364.053 642.905 359.001C646.402 342.214 647.175 324.868 650.628 308.079C651.355 304.543 654.438 296.755 653.422 294.739C652.179 294.334 651.599 294.248 650.395 294.877C644.709 297.844 633.052 323.191 628.519 330.398C609.554 360.552 576.442 387.214 541.248 394.664C560.002 367.833 573.171 337.324 578.279 304.84C578.916 300.787 579.708 292.561 574.275 292.064C573.053 292.7 572.918 293.081 572.531 294.513C561.123 336.698 528.243 368.103 491.632 389.703C479.196 397.04 466.517 401.656 452.436 405.504C458.016 398.91 463.391 392.248 468.39 385.198C476.853 373.262 511.224 320.838 509.299 307.623C509.108 306.308 508.707 305.961 507.639 305.269C505.697 305.415 505.256 305.757 503.827 307.521C498.819 313.705 494.165 320.762 489.473 327.118C465.772 359.229 429.667 421.191 390.13 433.429L388.902 433.456C388.461 430.746 395.331 421.111 392.321 417.075C387.161 416.028 381.599 426.7 379.455 430.657C371.22 445.853 374.856 445.873 388.921 444.154L397.371 443.119C394.444 456.529 392.953 463 391.94 476.722C391.717 485.292 391.743 495.513 392.817 503.946C393.477 509.12 395.022 515.654 396.018 520.961C389.448 517.848 374.594 511.375 369.783 506.614C354.222 491.216 360.26 458.566 347.579 441.249C346.987 440.44 345.394 439.854 344.216 439.913C342.741 441.762 342.546 456.69 342.064 460.158C329.608 448.491 314.266 448.877 298.998 453.801L298.967 444.738C283.791 459.179 274.577 482.564 267.14 501.706C260.553 487.841 252.011 463.381 250.95 448.473C250.141 437.112 251.038 422.356 251.263 410.754C250.619 409.612 251.07 410.101 249.554 409.573C245.418 410.207 241.443 414.272 238.071 417.044L237.229 418.277C233.594 415.929 236.161 388.185 236.785 383.635C242.099 344.925 253.92 306.2 275.939 273.602C288.113 255.562 306.111 240.416 327.97 235.364C330.961 234.672 340.444 234.625 342.466 232.126C344.404 229.729 346.308 222.089 347.62 218.861C352.961 205.718 363.975 190.966 375.748 183.085Z"/><path fill="#473128" d="M344.242 315.129C330.417 353.152 326.307 401.206 331.848 441.266C339.974 420.635 348.778 393.867 362.67 376.382C361.079 394.843 357.528 414.219 351.271 431.632C368.647 417.854 384.035 401.742 396.999 383.751C399.793 379.796 412.967 357.784 414.884 356.186C416.637 358.226 416.053 367.313 415.798 370.209C413.621 394.891 402.825 413.119 390.13 433.429L388.902 433.456C388.461 430.746 395.331 421.111 392.321 417.075C387.161 416.028 381.599 426.7 379.455 430.657C371.22 445.853 374.856 445.873 388.921 444.154L397.371 443.119C394.444 456.529 392.953 463 391.94 476.722C391.717 485.292 391.743 495.513 392.817 503.946C393.477 509.12 395.022 515.654 396.018 520.961C389.448 517.848 374.594 511.375 369.783 506.614C354.222 491.216 360.26 458.566 347.579 441.249C346.987 440.44 345.394 439.854 344.216 439.913C342.741 441.762 342.546 456.69 342.064 460.158C329.608 448.491 314.266 448.877 298.998 453.801L298.967 444.738C283.791 459.179 274.577 482.564 267.14 501.706C260.553 487.841 252.011 463.381 250.95 448.473C250.141 437.112 251.038 422.356 251.263 410.754C250.619 409.612 251.07 410.101 249.554 409.573C245.418 410.207 241.443 414.272 238.071 417.044C239.927 409.264 265.675 375.57 272.649 374.007C274.975 375.754 275.095 379.208 275.508 382.053C278.43 402.2 284.345 423.439 293.024 441.908C295.423 432.094 296.417 422.42 298.424 412.209C304.721 380.182 316.248 347.891 336.974 322.258C339.254 319.438 341.326 317.217 344.242 315.129Z"/><path fill="#674335" d="M388.921 444.154L397.371 443.119C394.444 456.529 392.953 463 391.94 476.722C390.992 480.185 391.604 491.287 391.042 496.428C388.485 486.847 385.507 451.974 388.921 444.154Z"/><path fill="#674335" d="M607.74 467.374C620.383 463.315 631.477 460.914 644.363 465.365C644.396 469.023 645.285 480.509 645.138 482.207C643.876 482.134 643.398 481.902 642.198 481.514C636.24 484.182 647.939 512.262 651.109 516.757C658.378 527.065 663.67 532.73 674.336 539.175C674.741 542.58 675.376 547.105 675.537 550.496C669.4 562.144 660.514 564.241 650.167 570.645C648.751 571.521 648.684 572.783 648.861 574.254C652.009 578.612 659.748 577.342 664.351 576.386C681.504 572.825 688.947 561.859 688.077 545.108C715.274 554.94 742.485 547.407 761.304 525.802C763.105 523.898 764.787 521.615 766.41 519.535C768.689 523.424 764.281 545.715 763.701 551.791C759.148 599.444 742.565 641.502 704.579 672.474C704.241 667.866 704.041 663.525 703.05 658.996C699.087 665.398 694.979 675.857 690.571 680.369C688.611 682.572 686.544 684.032 683.565 684.343L681.676 685.468C676.332 687.038 673.33 689.03 667.459 690.483C667.676 687.831 667.957 684.983 668.101 682.344C664.959 686.119 662.881 689.904 659.878 693.475C656.127 695.413 651.175 696.425 647.011 697.472C647.005 693.838 647.089 689.808 646.961 686.21C643.943 690.882 641.567 695.725 637.353 699.266C631.433 699.959 623.646 701.058 617.871 701.249L614.008 698.556C611.998 699.555 612.785 700.997 612.245 701.228C610.247 702.082 601.978 701.741 600.081 701.733C598.709 700.338 596.351 697.572 594.671 697.039C592.831 698.333 593.047 700.439 592.57 700.784C590.153 702.532 578.405 701.494 576.291 700.89L575.891 700.427C574.098 700.432 572.935 700.273 571.301 701.008L570.323 699.496C568.827 700.068 562.484 699.285 560.573 698.959C553.44 697.743 549.971 691.943 546.122 686.456C546.017 689.957 546.219 692.531 546.488 696.036C531.672 693.818 531.488 693.974 521.691 680.273C520.615 678.768 519.732 676.918 518.164 675.998L517.577 676.49C516.873 680.152 517.418 685.132 517.628 688.963C508.702 686.796 504.706 685.739 496.54 682.114C494.416 685.831 495.801 690.883 496.448 695.12C489.63 692.836 465.252 678.921 460.618 681.188C446.437 672.279 428.257 655.482 417.337 642.927C409.826 634.333 403.042 625.13 397.055 615.412C396.022 613.759 394.287 610.348 392.839 609.684C392.137 608.335 391.104 604.152 390.211 602.175C387.328 595.788 384.618 589.305 381.887 582.857C380.664 579.971 380.567 579.238 377.931 578.201L378.748 578.106C379.765 576.815 377.903 572.244 377.236 570.304C372.434 556.333 370.332 543.237 369.854 528.45C375.676 532.163 379.281 535.625 385.612 538.961L384.851 530.561C389.418 532.966 393.791 535.337 398.539 537.39L399.913 537.697C405.631 539.997 410.467 541.931 416.395 543.657C408.856 516.721 407.912 501.176 409.54 473.646C412.137 473.48 415.513 472.974 418.086 472.505C432.989 469.789 447.387 468.44 462.421 467.119C463.524 479.641 464.075 487.833 467.952 499.962C485.11 553.646 555.15 565.405 590.963 523.345C606.068 505.605 607.555 489.346 607.74 467.374Z"/><path fill="#FEDDB0" d="M607.74 467.374C620.383 463.315 631.477 460.914 644.363 465.365C644.396 469.023 645.285 480.509 645.138 482.207C643.876 482.134 643.398 481.902 642.198 481.514C636.24 484.182 647.939 512.262 651.109 516.757C658.378 527.065 663.67 532.73 674.336 539.175C674.741 542.58 675.376 547.105 675.537 550.496C669.4 562.144 660.514 564.241 650.167 570.645C648.751 571.521 648.684 572.783 648.861 574.254C652.009 578.612 659.748 577.342 664.351 576.386C681.504 572.825 688.947 561.859 688.077 545.108C715.274 554.94 742.485 547.407 761.304 525.802C761.354 531.665 760.347 538.263 759.847 544.122C758.278 562.497 754.669 578.194 750.417 595.918C748.623 593.513 747.05 591.076 743.817 592.593C741.036 596.446 741.78 607.871 740.689 614.421C738.635 609.791 733.109 599.905 730.562 611.579C729.037 618.567 729.598 622.785 726.892 630.038C726.674 627.06 725.92 617.395 721.829 617.979C716.976 621.85 716.64 631.909 712.298 639.528C712.332 634.736 713.078 628.296 709.865 624.751C707.918 623.939 705.723 624.913 705.456 624.078C704.11 619.869 703.617 615.247 702.77 610.849C699.516 593.975 684.53 589.868 669.222 589.121C635.641 587.483 601.069 593.219 567.818 585.76C559.101 583.824 547.539 580.214 538.824 583.399C521.577 591.19 520.678 621.237 519.918 636.591C508.155 623.093 506.555 639.087 506.089 648.247C502.435 644.808 502.144 644.635 499.515 640.24C496.672 635.489 496.423 625.923 490.572 625.615C485.663 627.867 483.915 634.996 482.855 639.827C479.957 636.292 480.212 636.557 478.315 632.462C475.745 626.917 476.806 618.156 471.253 615.771C466.356 615.526 462.346 622.687 460.106 626.468C456.572 619.634 455.935 614.775 455.544 607.115C455.413 604.555 454.645 602.15 452.277 600.86C447.249 600.103 442.275 605.889 439.078 609.317C436.76 603.046 436.34 598.703 436.63 592.026C436.775 588.673 437.02 584.461 433.885 582.413C429.165 581.357 422.608 587.082 419.404 590.235C417.017 584.205 416.76 579.714 416.995 573.239C417.118 569.847 417.751 565.352 414.446 563.369C411.181 562.836 409.424 564.584 406.751 566.479C404.907 562.232 398.989 541.419 399.913 537.697C405.631 539.997 410.467 541.931 416.395 543.657C408.856 516.721 407.912 501.176 409.54 473.646C412.137 473.48 415.513 472.974 418.086 472.505C432.989 469.789 447.387 468.44 462.421 467.119C463.524 479.641 464.075 487.833 467.952 499.962C485.11 553.646 555.15 565.405 590.963 523.345C606.068 505.605 607.555 489.346 607.74 467.374Z"/><path fill="#473128" d="M369.854 528.45C375.676 532.163 379.281 535.625 385.612 538.961L384.851 530.561C389.418 532.966 393.791 535.337 398.539 537.39L397.73 537.856C393.995 536.658 389.796 534.31 386.246 532.48C386.201 534.928 385.949 536.714 386.823 538.978C387.536 539.669 387.721 539.68 388.086 540.598C387.44 540.395 386.855 540.245 386.181 540.154C384.724 546.767 396.424 581.385 399.981 589.031C403.11 595.759 409.078 607.535 413.222 613.969C429.81 639.408 452.669 660.149 479.597 674.193C484.039 676.555 491.25 680.573 495.98 681.363L496.54 682.114C494.416 685.831 495.801 690.883 496.448 695.12C489.63 692.836 465.252 678.921 460.618 681.188C446.437 672.279 428.257 655.482 417.337 642.927C409.826 634.333 403.042 625.13 397.055 615.412C396.022 613.759 394.287 610.348 392.839 609.684C392.137 608.335 391.104 604.152 390.211 602.175C387.328 595.788 384.618 589.305 381.887 582.857C380.664 579.971 380.567 579.238 377.931 578.201L378.748 578.106C379.765 576.815 377.903 572.244 377.236 570.304C372.434 556.333 370.332 543.237 369.854 528.45Z"/><path fill="#2C2822" d="M570.323 699.496C570.495 697.29 570.122 697.363 571.259 695.974C573.132 696.423 574.581 698.769 575.891 700.427C574.098 700.432 572.935 700.273 571.301 701.008L570.323 699.496Z"/><path fill="#603C27" d="M683.565 684.343C684.94 682.976 689.415 677.869 690.683 677.38L690.852 676.802C690.452 678.166 690.002 678.977 690.571 680.369C688.611 682.572 686.544 684.032 683.565 684.343Z"/><path fill="#FEDDB0" d="M544.138 595.891C549.078 596.394 552.106 596.702 556.577 599.037L557.583 599.167C561.07 599.643 565.393 600.727 569.113 601.349C577.522 602.729 585.991 603.705 594.493 604.275C619.356 605.811 645.471 603.583 670.46 603.603C673.488 602.153 680.049 604.763 682.869 606.237C690.81 609.929 690.425 626.986 690.611 634.354C690.953 647.875 688.585 653.341 679.105 662.795C679.346 660.136 680.105 654.863 677.095 653.649C672.901 654.637 669.573 662.676 666.229 665.592C664.535 667.069 662.827 668.032 660.919 669.171C661.116 666.054 661.882 658.734 658.489 657.443C655.797 658.237 650.86 665.234 648.188 668.075C648.205 660.952 648.13 651.686 639.102 659.73C637.989 655.234 636.897 651.99 633.294 648.428C626.316 641.531 610.014 641.63 605.044 650.93C604.054 652.783 604.818 656.364 602.897 658.526C601.143 657.513 600.889 657.117 599.041 657.685C595.909 660.685 595.596 667.356 595.285 671.502L594.954 671.291C585.719 665.221 575.006 650.012 576.53 672.902C570.268 670.579 567.337 668.256 563.079 663.09C561.161 660.762 558.441 657.007 555.291 658.672C553.246 661.817 553.831 664.693 554.011 668.474C546.483 665.05 540.581 658.834 537.551 651.139C532.776 639.045 535.852 613.979 541.186 601.651C541.553 599.057 542.587 597.976 544.138 595.891Z"/><path fill="#021A21" d="M544.138 595.891C549.078 596.394 552.106 596.702 556.577 599.037L557.583 599.167C561.07 599.643 565.393 600.727 569.113 601.349C577.522 602.729 585.991 603.705 594.493 604.275C619.356 605.811 645.471 603.583 670.46 603.603C673.488 602.153 680.049 604.763 682.869 606.237C670.919 627.57 636.095 630.959 614.198 629.973C589.193 628.846 558.575 620.593 541.186 601.651C541.553 599.057 542.587 597.976 544.138 595.891Z"/><path fill="#FEF4DD" d="M556.577 599.037L557.583 599.167C561.07 599.643 565.393 600.727 569.113 601.349C577.522 602.729 585.991 603.705 594.493 604.275C619.356 605.811 645.471 603.583 670.46 603.603C662.833 609.312 654.772 613.911 645.227 615.431C613.23 620.527 583.732 617.306 556.577 599.037Z"/><path fill="#263941" d="M197.383 813.333C186.005 801.676 180.02 788.5 178.546 772.188C171.739 696.839 274.226 670.256 331.447 661.093C341.335 659.509 352.479 658.919 362.52 658.003C367.356 675.797 368.776 674.661 381.266 662.593C380.873 667.241 381.02 673.889 380.987 678.69C370.232 679.391 359.445 679.482 348.693 680.319C324.782 682.18 267.895 688.518 251.083 706.591C248.446 709.426 246.45 713.173 246.698 717.141C247.526 730.447 266.519 738.272 277.307 741.764C307.341 751.483 339.24 755.18 369.689 763.615C429.633 780.22 484.208 812.075 532.749 850.455C546.837 861.593 560.17 873.559 573.867 885.149C576.568 887.435 579.383 888.51 582.955 888.113C598.224 886.416 632.202 849.97 642.584 837.398C661.936 813.965 683.584 778.988 680.337 747.497C679.127 735.761 673.517 726.682 664.45 719.37C675.935 714.289 684.686 711.077 695.579 704.118C774.167 743.966 763.343 811.292 695.694 855.674C694.68 849.34 694.45 842.834 687.72 839.659C675.539 833.997 657.21 841.58 650.893 852.969C646.8 860.347 649.232 871.387 651.662 879.04C640.442 883.587 629.345 888.63 618.319 893.636C615.516 894.909 609.129 897.735 608.362 900.842L609.121 901.612C616.283 903.808 646.188 897.16 654.64 894.889C656.564 905.125 658.783 915.941 660.186 926.212C623.753 930.89 587.127 933.922 550.421 935.3C534.248 935.945 518.245 935.573 502.54 936.133C502.58 927.329 500.581 910.275 499.564 901.428C506.735 902.445 547.833 907.854 550.371 903.577L549.928 902.536C542.591 896.575 506.391 888.066 496.238 886.381C492.984 871.924 488.691 856.561 473.357 851.387C462.519 847.731 443.765 847.857 438.745 860.446C437.188 864.351 438.453 868.356 440.318 871.774C417.97 866.754 396.931 856.799 375.958 849.283C336.427 835.116 236.184 791.775 197.383 813.333Z"/><path fill="#263941" d="M174.834 870.371C182.838 863.634 192.033 857.562 199.839 850.409C203.271 847.264 207.067 843.853 210.84 841.213C220.931 838.389 233.232 838.434 243.528 839.451C282.292 843.28 319.85 857.309 356.285 870.392C387.753 881.691 413.952 893.154 447.972 892.626C452.907 904.926 455.48 919.383 456.982 932.523C366.952 927.978 252.488 918.609 174.834 870.371Z"/><path fill="#FBB381" d="M392.839 609.684C394.287 610.348 396.022 613.759 397.055 615.412C403.042 625.13 409.826 634.333 417.337 642.927C428.257 655.482 446.437 672.279 460.618 681.188C469.014 687.474 477.693 692.25 486.87 697.236C520.408 715.46 556.278 726.954 594.504 729.189C594.493 747.947 596.226 769.308 597.107 788.29C594.811 788.246 592.516 788.176 590.222 788.08C523.056 785.148 447.895 741.884 408.531 687.484C405.719 683.598 402.998 678.296 399.848 674.85L399.077 675.49C400.485 655.569 397.615 628.966 392.839 609.684Z"/><path fill="#FEDDB0" d="M399.077 675.49L399.848 674.85C402.998 678.296 405.719 683.598 408.531 687.484C447.895 741.884 523.056 785.148 590.222 788.08C592.516 788.176 594.811 788.246 597.107 788.29C597.449 791.906 597.5 796.162 597.629 799.845C582.189 822.852 535.056 816.243 512.702 809.034C509.117 807.878 496.617 798.167 492.472 795.427C460.579 774.348 426.151 758.355 391.064 743.44C395.366 724.51 398.891 694.706 399.077 675.49Z"/><path fill="#473128" d="M761.456 311.729C773.174 332.81 782.854 361.953 787.795 385.57C789.196 392.286 790.512 399.019 791.742 405.768C792.399 409.508 792.757 413.425 793.589 417.066C794.97 397.606 798.31 378.833 796.96 359.179C796.872 357.896 797.198 356.865 797.982 355.896C802.826 357.408 815 385.65 817.465 391.812C820.288 398.869 823.918 409.351 825.424 416.807C818.951 413.611 809.604 402.086 811.718 419.421C814.787 444.6 810.663 470.031 794.674 490.348C794.17 486.047 794.177 476.529 792.552 473.622C791.344 473.212 791.288 473.032 789.755 473.728C786.165 475.359 782.609 484.684 781.823 488.033C780 495.8 776.003 531.132 777.387 536.779C778.153 542.119 776.533 554.103 775.997 559.725C772.582 595.485 764.839 631.346 742.618 660.48C740.482 663.28 730.024 676.304 727.433 678.104C723.577 676.349 718.378 682.035 715.275 684.073C715.494 680.756 715.735 678.513 716.254 675.232L715.453 674.677C713.318 675.356 711.672 678.222 710.433 680.037C706.642 685.592 702.667 689.858 696.612 692.9C696.704 690.307 697.163 685.431 695.789 683.375L694.889 683.262C693.054 685.397 692.177 687.244 690.603 689.538C687.414 694.186 684.134 697.398 679.867 700.994C680.039 697.919 680.598 691.679 680.316 688.903C680.339 688.738 680.129 687.795 680.09 687.593L679.185 687.485L679.446 687.054L680.414 686.895C680.968 685.81 680.69 686.117 681.676 685.468L683.565 684.343C686.544 684.032 688.611 682.572 690.571 680.369C694.979 675.857 699.087 665.398 703.05 658.996C704.041 663.525 704.241 667.866 704.579 672.474C742.565 641.502 759.148 599.444 763.701 551.791C764.281 545.715 768.689 523.424 766.41 519.535C769.962 513.636 774.718 504.02 776.414 498.175C780.585 483.797 780.518 473.05 793.308 463.28C797.325 460.211 799.162 450.013 798.473 444.696C797.812 439.6 798.708 422.999 794.592 419.37C789.695 419.25 789.078 436.313 788.838 439.736C782.674 436.424 775.524 435.534 769.66 432.474C772.189 426.872 776.525 403.61 771.122 400.832C768.937 402.124 768.597 404.81 767.938 407.265C767.192 404.148 766.928 402.861 766.624 399.617C767.276 399.443 767.918 399.44 768.071 398.942C768.718 396.841 768.618 391.437 768.636 389.247C768.847 375.071 768.132 360.898 766.496 346.816C765.091 335.644 762.533 322.582 761.456 311.729Z"/><path fill="#FBB381" d="M332.102 578.22C326.752 575.896 319.87 569.928 315.786 565.732C299.615 548.647 288.418 523.439 288.29 499.86C288.107 466.232 318.476 451.759 342.073 478.267C344.191 495.207 346.353 507.293 359.228 519.887C362.427 522.616 365.335 524.369 369.059 526.446C369.353 526.611 369.766 528.072 369.854 528.45C370.332 543.237 372.434 556.333 377.236 570.304C377.903 572.244 379.765 576.815 378.748 578.106L377.931 578.201C374.614 578.704 372.753 579.916 369.834 581.531C358.212 587.96 343.186 584.17 332.102 578.22Z"/><path fill="#FEDDB0" d="M332.102 578.22C328.812 572.409 324.901 567.761 321.499 560.609C316.315 549.71 309.791 524.771 322.881 516.556C324.58 515.49 328.06 516.051 330.088 516.294C340.891 517.59 348.282 532.459 356.296 535.945L356.91 535.596C358.778 532.08 358.922 524.157 359.228 519.887C362.427 522.616 365.335 524.369 369.059 526.446C369.353 526.611 369.766 528.072 369.854 528.45C370.332 543.237 372.434 556.333 377.236 570.304C377.903 572.244 379.765 576.815 378.748 578.106L377.931 578.201C374.614 578.704 372.753 579.916 369.834 581.531C358.212 587.96 343.186 584.17 332.102 578.22Z"/><path fill="#263941" d="M759.591 834.941C771.041 841.449 789.449 856.427 798.262 866.244C776.469 889.551 749.955 903.263 719.823 912.534C717.485 913.254 706.283 916.394 705.149 917.407C705.046 917.159 704.066 910.723 703.922 909.882C702.22 900.279 700.61 890.66 699.091 881.027C721.505 871.545 744.74 854.262 759.591 834.941Z"/><path fill="#473128" d="M646.961 686.21C647.089 689.808 647.005 693.838 647.011 697.472C651.175 696.425 656.127 695.413 659.878 693.475C655.51 701.647 650.3 706.657 642.493 711.36C643.251 707.149 644.187 703.509 643.52 699.271L642.812 698.278C640.158 698.704 637.875 702.474 636.247 704.631C632.732 709.289 630.056 712.047 624.648 714.769C622.617 711.744 619.04 704.549 616.649 703.485C614.233 704.738 612.493 712.594 611.48 715.398C609.011 713.99 608.129 713.438 605.855 711.67C602.621 709.156 598.567 701.944 594.709 701.991C592.235 704.865 593.377 711.487 593.965 715.079C586.051 712.013 581.096 707.986 576.291 700.89C578.405 701.494 590.153 702.532 592.57 700.784C593.047 700.439 592.831 698.333 594.671 697.039C596.351 697.572 598.709 700.338 600.081 701.733C601.978 701.741 610.247 702.082 612.245 701.228C612.785 700.997 611.998 699.555 614.008 698.556L617.871 701.249C623.646 701.058 631.433 699.959 637.353 699.266C641.567 695.725 643.943 690.882 646.961 686.21Z"/><path fill="#473128" d="M517.628 688.963C517.418 685.132 516.873 680.152 517.577 676.49L518.164 675.998C519.732 676.918 520.615 678.768 521.691 680.273C531.488 693.974 531.672 693.818 546.488 696.036C546.219 692.531 546.017 689.957 546.122 686.456C549.971 691.943 553.44 697.743 560.573 698.959C562.484 699.285 568.827 700.068 570.323 699.496L571.301 701.008C571.324 704.825 571.53 708.42 571.746 712.231C563.178 708.342 559.992 705.019 553.605 698.389C552.73 697.48 551.857 697.5 550.737 697.693C548.595 700.382 549.423 704.965 549.603 708.517C545.352 707.313 541.34 705.388 537.742 702.825C533.921 700.085 526.218 691.578 522.133 690.855L521.397 691.472C520.525 694.619 521.105 698.76 521.476 702.03C511.792 698.197 501.949 691.047 496.54 682.114C504.706 685.739 508.702 686.796 517.628 688.963Z"/><path fill="#FBB381" d="M410.186 468.346C423.852 465.267 439.105 463.173 452.991 460.75C457.363 459.987 460.635 463.349 462.421 467.119C447.387 468.44 432.989 469.789 418.086 472.505C415.513 472.974 412.137 473.48 409.54 473.646L410.186 468.346Z"/><path fill="#473128" d="M659.878 693.475C662.881 689.904 664.959 686.119 668.101 682.344C667.957 684.983 667.676 687.831 667.459 690.483C673.33 689.03 676.332 687.038 681.676 685.468C680.69 686.117 680.968 685.81 680.414 686.895L679.446 687.054L679.185 687.485L680.09 687.593C680.129 687.795 680.339 688.738 680.316 688.903L678.747 688.484C677.061 689.473 671.191 698.391 669.025 700.595C665.9 703.773 664.812 704.583 661.005 706.895C661.46 701.9 662.68 697.384 659.878 693.475Z"/><path fill="#FEDDB0" d="M696.988 293.037C727.153 328.182 751.041 382.862 759.791 428.029C758.364 427.451 754.733 426.087 753.576 425.398C715.069 409.59 670.686 411.199 648.317 450.961C632.592 446.555 619.066 447.204 603.55 452.608C575.643 394.461 508.231 416.945 462.283 435.864C453.26 439.579 436.558 442.587 426.462 445.273C422.041 446.511 417.579 447.598 413.084 448.532C413.977 444.683 415.259 440.347 416.3 436.49C426.044 430.8 431.698 426.513 440.461 419.452C476.002 419.747 522.605 390.458 544.971 363.727C542.515 369.265 535.292 384.282 531.466 388.625C528.052 394.083 520.423 401.325 519.717 404.869C520.799 409.426 526.867 408.451 530.632 408.283C575.565 403.361 604.174 383.961 631.303 349.012C630.604 354.252 630.122 358.237 628.796 363.389C628.376 365.404 626.764 370.273 626.57 371.757C625.967 376.348 617.957 390.485 618.6 393.539C619.302 394.45 620.106 395.356 621.285 395.498C625.832 396.043 638.022 390.963 641.78 388.821C668.613 373.53 683.901 346.089 692.272 317.448C694.663 308.156 695.246 302.129 696.988 293.037Z"/><path fill="#FBB381" d="M696.988 293.037C727.153 328.182 751.041 382.862 759.791 428.029C758.364 427.451 754.733 426.087 753.576 425.398C753.314 420.687 748.661 410.916 746.721 406.454C735.079 379.754 720.535 354.415 703.351 330.895C700.974 327.583 695.277 319.345 692.272 317.448C694.663 308.156 695.246 302.129 696.988 293.037Z"/><path fill="#FBB381" d="M440.461 419.452C476.002 419.747 522.605 390.458 544.971 363.727C542.515 369.265 535.292 384.282 531.466 388.625C530.146 388.616 529.562 388.404 528.449 389.317C521.843 394.738 515.699 400.706 508.529 405.448C493.244 415.477 476.634 423.322 459.178 428.754C452.259 430.889 444.05 431.278 437.52 433.772C434.56 434.903 427.977 442.31 426.462 445.273C422.041 446.511 417.579 447.598 413.084 448.532C413.977 444.683 415.259 440.347 416.3 436.49C426.044 430.8 431.698 426.513 440.461 419.452Z"/><path fill="#FBB381" d="M530.632 408.283C575.565 403.361 604.174 383.961 631.303 349.012C630.604 354.252 630.122 358.237 628.796 363.389C621.524 366.844 611.402 378.229 603.266 383.464C586.681 394.135 569.085 401.783 549.995 406.976C545.273 408.31 534.64 411.539 530.632 408.283Z"/><path fill="#FEDDB0" d="M531.253 432.7C557.227 429.103 588.163 440.536 592.097 469.666C594.293 485.039 590.147 500.644 580.611 512.9C571.766 524.234 557.747 531.666 543.544 533.415C542.878 533.506 542.211 533.592 541.543 533.673C527.389 535.341 513.65 531.815 502.336 522.956C482.978 507.799 472.931 469.599 489.591 449.39C498.924 438.068 517.271 434.019 531.253 432.7Z"/><path fill="#021A21" d="M538.828 443.096C574.021 440.705 576.585 506.602 545.736 515.954C513.462 519.041 505.819 453.039 538.828 443.096Z"/><path fill="#FEDDB0" d="M711.857 432.715C726.102 431.311 741.128 436.625 751.516 446.478C771.373 465.243 762.189 502.438 745.113 519.869C735.146 530.042 724.233 533.924 710.266 534.047C698.671 533.333 688.349 528.899 679.627 521.304C667.559 510.966 660.166 496.201 659.117 480.345C656.918 447.457 682.981 434.648 711.857 432.715Z"/><path fill="#021A21" d="M704.955 443.564C740.353 441.735 743.353 506.266 712.248 516.505C679.933 522.522 670.653 452.751 704.955 443.564Z"/><path fill="#4A5D6D" d="M617.644 781.251C621.26 783.718 625.382 789.988 627.45 793.784C631.835 801.837 631.891 810.28 629.402 818.864C623.653 838.689 600.396 862.334 582.612 872.156C576.984 866.649 571.387 861.112 565.82 855.544C557.027 847.048 548.018 838.778 538.803 830.741C563.435 834.26 604.434 834.873 616.529 807.495C620.093 799.426 618.603 789.753 617.644 781.251Z"/><path fill="#4A5D6D" d="M460.407 863.649C462.853 863.352 465.39 863.195 467.838 863.558C471.273 864.068 473.483 865.582 475.502 868.365C484.398 880.627 490.785 927.296 487.866 942.566C487.297 945.542 486.55 947.073 484.043 948.776L483.751 948.732C479.687 948.167 478.024 947.051 476.8 942.928C474.228 934.261 473.77 925.056 471.958 916.205C469.636 904.866 466.743 893.578 462.238 882.889C460.147 877.939 457.475 873.274 455.193 868.369C457.197 865.902 457.687 865.298 460.407 863.649Z"/><path fill="#4A5D6D" d="M673.57 851.501C681.85 850.844 680.908 856.382 681.64 862.956C684.396 887.702 692.919 913.046 691.041 938.068C690.797 941.327 686.207 942.308 682.973 940.846C677.868 934.428 676.842 922.135 675.196 914.084C673.578 906.357 671.901 898.643 670.165 890.941C668.377 883.027 666.175 875.144 664.273 867.237C662.174 858.505 665.874 855.1 673.57 851.501Z"/><path fill="#473128" d="M326.404 591.265C340.575 593.926 347.442 594.819 362.143 593.015C375.002 610.514 380.281 624.025 380.105 646.19C379.345 643.35 377.497 635.543 374.674 634.414L373.69 634.952C372.529 637.125 372.775 639.572 372.726 642.124C372.517 646.217 372.349 648.13 371.585 652.136C367.562 634.081 363.056 629.101 353.785 613.489C351.291 609.288 349.317 604.587 346.429 600.478L345.03 600.36C340.79 602.053 338.086 607.36 335.858 611.234C332.059 604.265 329.042 598.847 326.404 591.265Z"/><path fill="#FEF4DD" d="M771.954 445.553C775.906 445.386 781.021 445.007 783.698 448.562L783.134 450.049L783.819 449.376C782.183 450.78 781.88 450.506 779.563 450.993C776.723 451.315 768.373 452.018 768.294 448.026C769.358 446.549 770.297 446.317 771.954 445.553Z"/><path fill="#FEF4DD" d="M774.149 456.458C776.373 456.437 777.148 456.444 778.865 457.75C779.566 459.412 779.485 458.563 778.995 460.395C777.617 461.995 777.407 462.026 775.486 463.03C773.04 462.556 770.284 462.025 770.146 459.175C771.117 457.597 772.424 457.259 774.149 456.458Z"/></svg>