<?xml version="1.0" encoding="utf-8" ?><svg xmlns="http://www.w3.org/2000/svg" xmlns:xlink="http://www.w3.org/1999/xlink" width="1024" height="1024" viewBox="0 0 1024 1024"><path fill="#FEF5D5" d="M0 0L1024 0L1024 528.974L1024 1024L0 1024L0 648.848L0 0Z"/><path fill="#68CC9C" d="M0 0L1024 0L1024 528.974C1011.95 529.345 996.178 531.242 983.966 532.408L902.955 540.524C892.36 541.642 880.868 543.475 870.327 544.347C873.809 541.83 875.428 540.677 878.131 537.174C879.125 536.27 880.171 534.331 880.915 533.102C894.889 510.914 894.616 471.658 892.925 445.9C901.345 442.563 908.974 437.441 912.344 428.542C922.961 400.507 917.035 358.164 906.198 330.893C900.535 316.643 892.272 303.152 883.497 291.365C910.67 273.457 916.44 240.353 879.365 232.294C841.838 224.136 828.655 205.251 804.142 178.744C771.154 142.772 727.139 118.793 679.026 110.585C665.936 108.271 652.689 106.945 639.4 106.62C633.493 96.5254 622.57 91.2051 611.6 88.2934C583.709 80.8903 525.114 84.2824 497.355 92.2524C494.094 83.8105 489.734 77.1722 481.004 73.6107C460.299 65.1646 414.079 70.7268 392.846 75.6157C380.278 78.6218 367.947 82.5415 355.951 87.3435C328.415 98.3228 303.37 114.73 282.307 135.59C274.995 142.815 268.382 151.145 261.084 158.14C258.133 160.967 248.093 165.446 244.035 167.998C225.794 179.469 185.895 210.711 209.322 234.138C197.623 245.116 191.559 252.219 182.324 265.327C159.036 298.38 145.937 338.937 145.764 379.445C145.663 402.917 147.767 433.62 173.033 443.142C173.017 464.912 170.713 483.186 163.067 503.763C157.528 518.671 146.19 540.296 158.87 554.363C166.957 563.149 179.852 561.818 190.544 560.765L190.28 561.183C182.997 572.531 176.393 577.962 177.051 593.401C178.166 595.052 178.832 596.238 180.283 597.578C178.835 598.704 175.785 600.932 174.574 602.099C170.913 603.805 159.589 606.261 155.255 607.302L119.068 615.916C81.999 624.746 45.4317 636.354 8.6343 646.291C5.85724 647.041 2.67897 647.861 0 648.848L0 0Z"/><path fill="#EDE8BB" d="M190.869 596.817C195.456 597.042 198.757 597.375 203.26 598.543C197.363 598.969 191.495 599.731 185.685 600.827C182.829 601.379 176.965 603.441 174.574 602.099C175.785 600.932 178.835 598.704 180.283 597.578C184.495 600.832 186.492 599.138 190.869 596.817Z"/><path fill="#AEBE9E" d="M878.131 537.174C875.859 535.934 873.645 536.913 872.056 534.737C874.986 533.893 877.614 533.889 880.915 533.102C880.171 534.331 879.125 536.27 878.131 537.174Z"/><path fill="#2E2418" d="M261.43 216.973C253.511 216.73 246.329 216.996 238.494 218.196C234.611 218.79 228.089 219.877 224.769 217.548C224.155 216.188 224.326 214.444 224.949 213.293C235.639 193.549 255.946 181.855 275.514 172.594C278.699 171.086 289.017 156.129 292.992 153.485C312.351 133.72 336.789 117.011 362.312 106.302C390.442 94.4985 422.107 88.4006 452.602 88.8878C461.202 89.0251 472.916 87.9146 479.035 94.8009C477.355 104.019 469.887 112.538 465.422 121.565C511.895 104.485 566.622 93.44 615.233 107.622C616.402 107.963 618.206 109.893 618.326 111.097C619.097 118.78 607.958 123.751 602.186 127.703C614.708 126.846 627.76 125.904 640.227 126.164C692.636 127.257 738.311 145.261 777.57 179.962C801.821 201.398 812.198 223.59 840.746 238.959C848.467 243.116 856.622 246.411 865.064 248.783C875.253 251.667 893.964 253.285 880.835 267.99C873.01 276.822 862.486 282.821 850.9 285.055C856.43 291.022 861.988 296.964 866.924 303.57C887.073 330.537 898.524 362.385 897.856 396.162C897.633 407.443 896.551 416.492 889.63 425.388C886.083 421.719 884.152 422.321 882.224 420.182C875.35 412.555 870.163 403.75 861.614 397.667C874.603 430.877 876.671 468.883 870.707 503.916C869.419 511.481 863.16 540.737 849.65 534.68C845.435 532.79 840.284 518.107 837.635 513.148C837.194 530.5 829.258 556.262 818.957 570.296C815.53 574.965 811.554 577.974 808.209 582.257C806.663 591.719 806.464 601.131 804.389 610.597C795.576 650.822 775.01 678.728 741.905 702.301C728.562 711.801 720.353 715.146 707.15 722.801C710.494 724.694 713.544 726.52 716.673 728.764C746.791 750.371 758.835 794.674 749.195 830.03C766.26 839.254 799.873 857.494 812.79 874.118C815.054 877.031 807.146 886.504 800.019 882.618C784.32 874.06 769.835 863.094 754.534 853.628C754.932 866.394 754.513 872.979 746.702 883.63C735.736 898.583 719.043 906.403 702.288 913.108C699.938 914.049 697.968 914.962 695.794 916.268C698.133 925.729 710.698 964.058 688.735 955.839C683.525 953.89 679.561 927.642 678.616 921.69C674.816 921.917 669.857 923.067 666.045 923.924C648.735 927.817 631.58 929.543 613.864 930.614C590.718 931.922 567.55 932.839 544.372 933.364L513.921 933.722C509.712 933.811 502.646 933.784 498.779 934.501C499.714 942.048 500.711 953.652 499.939 961.019C498.856 971.355 487.611 973.56 481.53 964.271C481.064 953.701 481.511 945.836 480.594 934.543C457.227 933.352 433.787 933.717 410.388 932.489C354.916 929.579 263.621 919.281 219.067 886.001C211.511 880.358 203.907 872.031 201.421 862.729C200.336 858.671 200.041 854.344 199.429 850.188L165 873.964C158.699 878.381 152.707 883.224 146.02 887.153C139.151 891.188 130.644 885.41 132.642 877.526C133.983 872.236 139.2 868.47 143.315 865.274C154.436 857.146 165.714 848.833 177.305 841.401C175.361 840.306 172.187 838.562 170.662 837.076C161.425 828.071 154.317 809.205 150.804 797.002C143.356 771.121 147.708 742.973 160.991 719.685C168.91 706.023 179.482 694.085 192.086 684.572C220.698 663.037 284.222 641.537 319.266 636.72C316.514 630.73 314.599 626.823 310.69 621.537C299.597 635.356 290.603 643.03 272.437 644.788C263.996 645.605 256.641 646.106 252.708 637.288C254.397 633.541 256.71 629.957 258.131 626.211C263.474 612.133 262.093 594.141 253.236 581.818C249.001 584.194 244.659 587.332 240.296 589.33C229.869 594.019 216.622 596.391 205.43 593.362C190.891 589.426 201.72 581.433 206.564 574.795C219.447 557.14 223.298 543.748 224.572 522.508C221.694 525.316 216.76 530.379 213.417 532.54C205.592 537.598 183.551 545.134 175.324 539.655C169.856 536.013 181.473 515.722 183.388 510.282C190.791 489.25 193.275 467.47 192.604 445.251C192.358 434.07 192.101 417.365 195.125 406.696C190.698 412.456 187.23 416.511 182.115 421.849C172.824 423.259 171.404 416.457 169.769 408.421C155.483 338.194 192.459 267.963 248.18 226.482C252.631 223.165 256.578 219.827 261.43 216.973Z"/><path fill="#68CC9C" d="M191.607 832.593C146.431 778.201 166.229 712.171 228.129 682.843C258.013 668.685 292.159 657.976 324.722 651.776C325.983 659.249 326.174 667.578 326.401 675.172C307.175 676.799 269.867 684.357 256.957 699.631C251.832 705.694 249.334 714.121 250.14 722.031C250.884 729.338 255.053 735.385 260.695 739.857C282.977 757.515 358.404 770.584 389.05 780.095C416.993 788.81 443.888 800.583 469.247 815.201C505.87 836.138 539.815 864.752 568.139 895.955C582.088 911.323 584.199 912.882 601.081 899.245C621.646 882.543 639.944 861.603 654.982 839.82C666.853 822.626 676.595 798.577 672.569 777.475C670.084 764.449 658.735 748.57 647.102 742.159C653.922 740.633 680.095 732.768 684.12 733.181C690.108 733.795 696.69 737.424 701.688 740.609C718.036 751.025 728.364 768.496 732.443 787.16C737.41 809.279 733.268 832.466 720.95 851.497C718.37 855.478 715.539 859.291 712.475 862.913C708.736 867.367 704.323 871.574 701.349 876.539C699.785 879.15 702.713 883.526 704.902 884.783C715.352 890.78 732.104 867.116 736.388 859.954C738.983 855.628 741.392 851.194 743.608 846.662L754.534 853.628C754.932 866.394 754.513 872.979 746.702 883.63C735.736 898.583 719.043 906.403 702.288 913.108C699.938 914.049 697.968 914.962 695.794 916.268C698.133 925.729 710.698 964.058 688.735 955.839C683.525 953.89 679.561 927.642 678.616 921.69C674.816 921.917 669.857 923.067 666.045 923.924C648.735 927.817 631.58 929.543 613.864 930.614C590.718 931.922 567.55 932.839 544.372 933.364L513.921 933.722C509.712 933.811 502.646 933.784 498.779 934.501C499.714 942.048 500.711 953.652 499.939 961.019C498.856 971.355 487.611 973.56 481.53 964.271C481.064 953.701 481.511 945.836 480.594 934.543C457.227 933.352 433.787 933.717 410.388 932.489C354.916 929.579 263.621 919.281 219.067 886.001C211.511 880.358 203.907 872.031 201.421 862.729C200.336 858.671 200.041 854.344 199.429 850.188C203.358 848.094 214.824 840.764 218.199 840.247C244.853 836.168 281.181 846.356 306.27 853.929C339.764 864.039 369.324 876.557 400.93 890.548C409.329 894.266 416.97 898.553 425.142 902.575C427.303 903.638 433.326 906.961 435.225 907.6C437.869 908.489 440.756 908.302 443.263 907.08C445.517 905.956 447.181 903.92 447.832 901.487C449.822 893.96 443.724 889.931 438.076 886.936C395.274 864.239 349.78 846.239 303.276 832.705C289.353 828.653 274.551 824.974 260.189 822.74C242.315 819.959 221.094 816.914 204.333 825.434C200.08 827.588 195.742 830.172 191.607 832.593Z"/><path fill="#2E2418" d="M472.149 899.969C464.948 899.318 460.753 896.755 461.648 888.563C462.307 882.547 465.326 877.039 470.041 873.245C483.272 862.767 504.413 871.154 514.656 882.106C516.922 884.529 517.777 892.662 514.131 894.193C505.254 897.922 496.885 889.167 487.726 887.33C494.525 906.731 495.788 914.485 498.779 934.501C499.714 942.048 500.711 953.652 499.939 961.019C498.856 971.355 487.611 973.56 481.53 964.271C481.064 953.701 481.511 945.836 480.594 934.543C479.552 923.278 476.13 910.53 472.149 899.969Z"/><path fill="#2E2418" d="M667.514 881.512C662.643 885.702 658.421 893.201 654.274 894.751C651.918 895.643 649.302 895.543 647.021 894.476C645.004 893.54 643.496 891.771 642.893 889.631C639.877 879.141 660.276 861.798 670.107 860.137C679.354 858.575 687.645 861.727 690.39 871.513C691.325 874.847 688.165 878.514 686.416 880.872C689.382 891.702 693.523 905.542 695.794 916.268C698.133 925.729 710.698 964.058 688.735 955.839C683.525 953.89 679.561 927.642 678.616 921.69C675.038 907.466 672.083 895.426 667.514 881.512Z"/><path fill="#8F6443" d="M443.711 105.206C447.884 104.968 452.103 104.892 456.244 105.473C451.942 115.94 443.462 126.946 439.654 138.248C437.214 145.493 435.71 147.292 444.003 150.769C448.403 149.311 452.354 146.651 456.481 144.819C462.245 142.26 469.306 138.752 475.214 136.673C506.096 125.809 539.465 118.056 572.348 118.262C577.074 118.292 585.217 118.397 589.449 119.663C584.964 122.767 567.299 140.359 571.572 146.956C574.646 151.702 588.302 146.573 593.4 145.783C652.421 136.64 716.804 149.346 762.134 190.048C786.729 212.105 802.542 241.143 833.72 255.021C842.894 259.104 849.152 262.341 859.159 264.35C853.694 266.25 850.002 268.453 843.88 270.035C836.688 271.894 821.43 270.104 816.543 274.191C816.213 274.947 815.434 275.921 816.211 276.576C827.181 285.826 838.249 296.083 847.336 307.24C863.535 326.756 874.481 350.085 879.137 375.017C880.385 381.77 880.745 388.519 881.765 395.34C868.297 379.366 855.358 369.267 834.852 364.666C833.355 366.708 832.549 368.188 831.317 370.371C833.119 374.406 835.522 378.293 837.523 382.26C854.09 415.108 859.707 452.483 855.055 488.884C854.26 495.104 853.024 500.875 852.016 506.994C849.355 501.238 835.592 479.302 826.897 479.181C822.315 480.046 822.672 486.851 822.837 489.69C823.931 508.546 818.504 538.427 809.086 554.341L808.668 555.04C809.163 546.151 808.453 537.326 808.131 528.455C807.888 521.754 807.865 514.843 807.684 508.147C805.751 436.856 799.534 388.78 758.036 329.455C758.434 324.415 758.668 298.819 756.6 295.396C753.481 293.449 749.693 294.248 745.935 294.524C743.394 303.092 740.962 313.351 737.763 321.673C726.483 351.008 711.293 368.53 684.258 384.096C689.926 365.173 693.258 345.503 691.58 325.634C691.417 323.293 690.378 318.706 688.071 317.386C678.951 312.773 676.63 325.641 672.985 331.362C652.08 364.177 622.094 388.27 584.12 398.108C576.897 399.979 569.719 401.474 562.373 402.947C572.591 388.672 580.347 368.279 584.718 351.302C586.207 345.523 591.822 333.047 589.142 327.692C588.468 326.347 587.238 325.365 585.776 325.008C580.998 323.819 576.324 331.227 573.065 334.798C554.106 355.576 529.066 374.954 504.267 388.138C468.07 407.382 420.553 415.989 380.842 403.644C384.76 400.951 391.161 396.772 394.892 393.828C407.248 384.078 422.211 367.239 424.485 350.885C424.712 349.089 424.571 346.059 423.085 344.75C417.661 339.975 409.456 347.391 404.565 349.474C391.104 355.207 377.71 359.452 362.988 359.927C357.027 360.12 351.799 359.822 345.926 359.274C366.366 350.642 384.603 339.578 397.348 320.827C405.476 308.943 402.109 307.877 388.765 308.082C383.946 312.44 378.442 320.266 372.729 325.536C356.933 340.586 335.174 347.125 314.508 352.415C303.439 355.249 304.495 361.21 313.792 365.843C318.13 368.005 324.674 370.558 329.231 371.963C351.441 378.812 379.621 376.958 400.402 366.146C388.902 378.687 379.327 389.024 363.249 395.733C357.955 397.942 346.197 400.539 344.993 406.221C344.593 408.063 344.986 409.988 346.074 411.526C347.841 414.013 350.208 414.349 353.007 414.954C378.221 420.405 403.267 426.993 429.285 426.188C434.649 426.022 442.475 425.156 447.532 426.027C444.44 432.326 441.655 441.785 439.47 448.631C430.285 477.408 430.656 499.834 433.122 529.241C421.094 512.203 413.428 500.595 410.452 479.048C409.623 475.908 410.559 461.731 408.406 459.906C396.562 449.861 395.432 473.113 394.846 475.226C389.305 495.197 388.33 513.853 388.826 534.259C375.74 514.96 369.715 492.39 369.16 469.198C368.605 464.638 370.275 450.984 366.664 447.881C358.815 441.137 352.864 461.782 350.861 464.821C333.785 490.73 303.963 523.362 271.53 523.504C264.332 542.07 278.889 539.177 290.628 536.73C292.077 539.226 294.174 544.447 295.341 547.347C304.865 571.016 322.036 591.952 347.832 597.912C352.771 599.053 358.293 598.632 363.494 599.707C364.557 628.681 362.231 645.765 342.301 667.383C341.902 657.85 340.906 650.599 338.058 641.387C336.673 636.797 334.9 632.333 332.76 628.042C329.496 621.551 315.876 599.817 310.129 596.775C305.992 596.926 302.656 606.405 300.193 610.215C291.862 623.106 288.568 623.831 275.303 628.794C276.553 618.583 279.304 607.313 276.132 596.7C273.331 587.33 266.822 566.468 259.402 559.978C254.768 555.925 247.119 568.137 242.319 571.263C235.353 575.8 230.988 577.377 222.598 579.707C223.867 577.006 226.029 573.933 227.926 570.799C242.597 546.568 237.911 519.763 236.118 493.275C234.542 488.352 229.006 488.906 227.195 492.84C220.174 508.09 210.632 517.527 196.03 524.554C205.465 503.744 209.109 478.974 209.094 456.183C209.08 435.397 208.449 418.115 214.42 397.483C216.814 389.21 222.52 380.032 224.169 371.721C224.3 370.717 224.044 369.859 223.213 369.245C219.503 366.5 214.146 370.655 210.978 372.39C199.438 378.71 191.985 387.461 184.651 398.101C175.553 329.866 216.047 268.809 269.309 230.392C276.319 225.337 308.692 213.489 308.278 206.745C303.243 200.61 264.175 201.833 255.361 202.577C280.801 183.367 298.521 180.897 328.922 180.995C334.846 172.706 330.175 170.153 322.026 167.984C316.146 166.418 310.608 166.007 304.548 166.049C344.564 127.815 388.497 109.194 443.711 105.206Z"/><path fill="#FEF5D5" d="M735.587 361.5C739.893 354.544 743.491 348.859 747.014 341.466C751.968 348.057 754.322 353.305 758.223 360.151C769.082 379.205 776.128 398.268 781.099 419.595C782.413 425.23 784.233 431.986 784.914 437.773C790.332 467.131 789.71 483.096 790.797 511.836C792.639 560.499 796.341 606.688 767.367 649.532C741.994 687.051 689.344 714.858 645.302 722.636C615.169 727.659 584.32 726.368 554.712 718.845C525.717 711.168 491.537 695.901 466.722 679.073C438.75 660.105 415.038 630.131 398.915 600.705C395.111 593.762 391.75 583.658 385.491 579.141C353.239 588.686 329.457 578.641 313.866 548.682C310.946 543.125 308.373 537.393 306.161 531.519C310.785 527.432 317.37 524.073 322.467 520.277C335.911 510.264 345.606 498.555 355.349 485.057C357.473 514.631 371.614 548.205 396.626 565.42C411.71 569.903 407.752 550.944 405.242 543.353C404.348 540.649 404.008 536.185 403.628 533.305C402.447 524.353 403.86 515.468 403.122 506.468C403.661 508.043 404.215 509.613 404.784 511.178C410.31 526.313 419.945 540.071 432.751 550.068C438.342 555.072 452.908 565.447 454.867 551.387C454.556 544.352 450.782 536.128 449.575 529.291C444.254 499.143 449.257 470.102 458.263 441.285C460.159 435.874 463.994 426.298 466.629 421.32C471.68 419.101 484.288 415.683 490.911 413.148C517.533 402.955 542.619 387.891 562.756 367.575C559.663 374.437 555.98 382.608 552.105 389.006C549.52 393.264 546.603 397.31 543.379 401.108C540.256 404.732 534.526 409.842 534.813 414.659C535.334 423.43 547.775 421.54 553.18 421.009C603.07 416.109 642.633 397.162 673.982 357.949C672.899 362.362 670.823 372.133 669.347 375.962C668.54 378.756 665.818 386.31 664.545 388.704C655.894 404.576 662.029 414.842 679.817 405.975C701.716 395.06 721.864 382.27 735.587 361.5Z"/><path fill="#F9C390" d="M673.982 357.949C672.899 362.362 670.823 372.133 669.347 375.962C666.566 376.567 661.56 383.255 659.264 385.919C630.664 419.097 584.136 442.04 540.096 430.806C537.122 430.047 533.422 425.836 531.773 423.239C531.872 418.533 531.972 415.506 532.746 410.801C533.13 408.464 534.219 403.865 534.361 401.826C521.15 411.371 509.182 420.803 494.11 427.46C482.876 432.422 470.267 438.634 458.263 441.285C460.159 435.874 463.994 426.298 466.629 421.32C471.68 419.101 484.288 415.683 490.911 413.148C517.533 402.955 542.619 387.891 562.756 367.575C559.663 374.437 555.98 382.608 552.105 389.006C549.52 393.264 546.603 397.31 543.379 401.108C540.256 404.732 534.526 409.842 534.813 414.659C535.334 423.43 547.775 421.54 553.18 421.009C603.07 416.109 642.633 397.162 673.982 357.949Z"/><path fill="#F9C390" d="M355.349 485.057C357.473 514.631 371.614 548.205 396.626 565.42C374.834 566.941 356.198 541.102 346.468 524.749C335.591 535.816 326.794 540.638 313.866 548.682C310.946 543.125 308.373 537.393 306.161 531.519C310.785 527.432 317.37 524.073 322.467 520.277C335.911 510.264 345.606 498.555 355.349 485.057Z"/><path fill="#F9C390" d="M735.587 361.5C739.893 354.544 743.491 348.859 747.014 341.466C751.968 348.057 754.322 353.305 758.223 360.151C769.082 379.205 776.128 398.268 781.099 419.595C782.413 425.23 784.233 431.986 784.914 437.773C781.255 434.61 774.477 418.887 771.267 413.802C760.025 395.991 747.375 378.795 735.587 361.5Z"/><path fill="#2E2418" d="M736.505 447.111C774.172 444.513 781.585 514.112 744.072 525.019C728.728 529.042 715.38 510.547 712.447 497.142C708.421 478.743 715.176 451.63 736.505 447.111Z"/><path fill="#2E2418" d="M552.757 446.196C557.261 446.126 562.831 448.366 566.423 451.035C587.83 466.942 586.97 507.226 563.949 521.331C560.825 523.245 557.957 523.761 554.49 524.285C515.04 522.734 514.699 449.855 552.757 446.196Z"/><path fill="#2E2418" d="M584.413 613.951C588.203 614.226 595.107 620.248 598.89 622.218C625.863 636.262 661.755 638.441 688.846 623.612C692.415 621.658 697.9 618.246 702.071 618.776C703.702 618.99 705.178 619.855 706.161 621.174C709.905 626.197 706.443 629.964 702.375 632.956C700.301 634.195 698.191 635.373 696.048 636.489C672.059 648.847 638.509 650.894 612.668 642.912C601.889 638.712 585.309 633.433 578.6 623.481C575.713 619.199 580.19 615.239 584.413 613.951Z"/><path fill="#2E2418" d="M676.074 494.485C687.449 493.878 685.281 503.598 686.509 511.644C687.245 516.47 688.255 521.56 690.574 525.924C696.545 537.161 712.862 534.82 718.118 546.875C721.648 555.246 717.846 566.901 712.284 573.68C708.514 578.276 704.766 580.213 699.623 582.474C696.315 582.83 691.489 581.662 690.44 578.498C687.633 570.037 703.698 566.171 704.375 556.418C705.022 547.084 695.552 547.619 689.685 544.567C685.498 542.36 681.926 539.148 679.289 535.219C673.188 526.237 670.752 511.672 671.251 500.771C671.376 498.016 673.913 495.933 676.074 494.485Z"/><path fill="#F9C390" d="M395.542 628.452C423.321 672.055 449.557 695.825 496.761 718.061C516.414 727.406 537.043 734.54 558.27 739.333C573.009 742.588 582.396 743.487 597.297 744.571C594.347 763.78 594.402 783.33 597.459 802.521C598.219 806.958 599.507 812.065 600.519 816.506C587.225 842.256 541.763 835.049 519.595 826.438C512.837 823.813 498.472 811.944 491.29 807.572C476.767 798.734 462.813 790.481 447.501 782.975C434.923 776.929 422.052 771.513 408.936 766.747C402.599 764.512 392.463 761.951 386.988 759.308C388.328 753.442 390.45 747.169 391.856 741.001C393.837 732.303 395.314 724.049 396.884 715.275C401.299 686.906 401.416 656.62 395.542 628.452Z"/><path fill="#FEF5D5" d="M396.884 715.275C409.413 725.746 418.25 734.488 432.102 744.035C470.208 770.148 513.178 788.33 558.455 797.498C569.88 799.846 585.865 802.343 597.459 802.521C598.219 806.958 599.507 812.065 600.519 816.506C587.225 842.256 541.763 835.049 519.595 826.438C512.837 823.813 498.472 811.944 491.29 807.572C476.767 798.734 462.813 790.481 447.501 782.975C434.923 776.929 422.052 771.513 408.936 766.747C402.599 764.512 392.463 761.951 386.988 759.308C388.328 753.442 390.45 747.169 391.856 741.001C393.837 732.303 395.314 724.049 396.884 715.275Z"/><path fill="#68CC9C" d="M618.68 810.278C619.386 810.877 619.192 810.644 619.711 811.324C626.223 819.853 630.61 828.254 628.813 839.332C626.582 853.08 596.16 880.585 584.31 889.221C580.316 884.243 576.107 879.44 571.697 874.826C565.87 868.432 552.83 855.492 546.38 850.453C547.999 850.654 549.624 850.798 551.253 850.884C580.884 852.469 617.265 846.837 618.68 810.278Z"/><path fill="#68CC9C" d="M370.813 656.406C374.395 660.731 374.212 663.974 374.407 669.397L364.557 670.294C362.996 670.707 362.765 670.763 361.161 670.877C361.472 670.345 361.719 669.917 362.123 669.44C365.506 665.448 368.108 660.891 370.813 656.406Z"/><path fill="#AEBE9E" d="M610.318 100.685C611.763 101.376 615.06 101.242 616.829 101.318C623.348 101.6 628.718 103.123 634.763 105.563C631.453 105.585 616.041 101.709 611.352 101.614C611.007 101.304 610.662 100.994 610.318 100.685Z"/></svg>